<svg width="46" height="39" viewBox="0 0 46 39" fill="none" xmlns="http://www.w3.org/2000/svg">
<path d="M15.5836 35.25C30.6742 35.25 38.9305 22.7446 38.9305 11.9032C38.9305 11.5516 38.9227 11.1922 38.907 10.8407C40.5131 9.67916 41.8992 8.24048 43 6.59222C41.5042 7.25773 39.9161 7.69236 38.2898 7.88129C40.0021 6.85491 41.2842 5.24251 41.8984 3.34301C40.2876 4.29766 38.526 4.97108 36.6891 5.33441C35.4514 4.01933 33.815 3.14859 32.0328 2.85681C30.2506 2.56504 28.422 2.86848 26.8296 3.72022C25.2372 4.57197 23.9697 5.92457 23.2231 7.56891C22.4765 9.21326 22.2924 11.0578 22.6992 12.8172C19.4375 12.6535 16.2466 11.8062 13.3333 10.3302C10.42 8.85422 7.84949 6.78246 5.78828 4.24926C4.74067 6.05547 4.42009 8.1928 4.89172 10.2269C5.36334 12.261 6.59177 14.0391 8.32734 15.2C7.02438 15.1587 5.74996 14.8079 4.60938 14.1766V14.2782C4.60821 16.1736 5.2635 18.011 6.46385 19.478C7.6642 20.945 9.33554 21.951 11.1937 22.325C9.98676 22.6553 8.71997 22.7034 7.49141 22.4657C8.01576 24.0958 9.03596 25.5215 10.4096 26.5439C11.7833 27.5664 13.4419 28.1344 15.1539 28.1688C12.2474 30.4519 8.65696 31.6903 4.96094 31.6844C4.30548 31.6834 3.65067 31.6432 3 31.5641C6.75476 33.973 11.1226 35.2524 15.5836 35.25Z" fill="#E67E22"/>
</svg>
