<svg width="40" height="40" viewBox="0 0 40 40" fill="none" xmlns="http://www.w3.org/2000/svg">
<path d="M20 40C31.0124 40 40 31.0118 40 20C40 8.9875 31.0118 0 20 0C8.98758 0 0 8.9882 0 20C0 31.0125 8.9882 40 20 40ZM25.9334 36.6295C27.0666 35.1814 27.9352 33.4542 28.5876 31.718H33.1943C31.2423 33.9141 28.7526 35.6205 25.9334 36.6295ZM34.9549 29.375H29.3452C30.0368 26.8603 30.4425 24.0722 30.5288 21.1719H37.6164C37.4189 24.1709 36.4695 26.9676 34.9549 29.375ZM34.9549 10.625C36.4695 13.0324 37.4189 15.8291 37.6164 18.8281H30.5288C30.4425 15.9278 30.0368 13.1397 29.3452 10.625H34.9549ZM33.1942 8.28125H28.5875C27.9353 6.54648 27.0668 4.81906 25.9333 3.37055C28.7526 4.37953 31.2423 6.08594 33.1942 8.28125ZM21.1719 2.54422C23.4716 3.32367 25.1213 6.05867 26.0649 8.28125H21.1719V2.54422ZM21.1719 10.625H26.9084C27.6535 13.092 28.0919 15.8909 28.1841 18.8281H21.1719V10.625ZM21.1719 21.1711H28.1841C28.0919 24.1091 27.6535 26.908 26.9084 29.375H21.1719V21.1711ZM21.1719 31.718H26.0649C25.1198 33.9451 23.4697 36.677 21.1719 37.4558V31.718ZM6.80578 31.7188H11.4125C12.0647 33.4535 12.9332 35.1809 14.0667 36.6295C11.2474 35.6205 8.75773 33.9141 6.80578 31.7188ZM18.8281 37.4558C16.5304 36.677 14.8804 33.9454 13.9351 31.7188H18.8281V37.4558ZM18.8281 29.375H13.0916C12.3465 26.908 11.9081 24.1091 11.8159 21.1719H18.8281V29.375ZM18.8281 18.8281H11.8159C11.9081 15.8909 12.3465 13.092 13.0916 10.625H18.8281V18.8281ZM18.8281 2.54422V8.28125H13.9351C14.8803 6.05484 16.5302 3.32305 18.8281 2.54422ZM14.0666 3.37055C12.9334 4.81859 12.0649 6.5457 11.4124 8.28125H6.80578C8.75773 6.08594 11.2474 4.37945 14.0666 3.37055ZM5.04508 10.6242H10.6548C9.9632 13.1397 9.5575 15.9278 9.47125 18.8281H2.38359C2.58109 15.8291 3.53047 13.0324 5.04508 10.6242ZM2.38359 21.1719H9.47125C9.5575 24.0722 9.9632 26.8603 10.6548 29.375H5.04508C3.53047 26.9676 2.58109 24.1709 2.38359 21.1719Z" fill="#E67E22"/>
</svg>
